<?xml version="1.0" encoding="UTF-8"?>
<svg id="Layer_1" xmlns="http://www.w3.org/2000/svg" version="1.1" viewBox="0 0 48 48">
  <!-- Generator: Adobe Illustrator 29.0.1, SVG Export Plug-In . SVG Version: 2.1.0 Build 192)  -->
  <defs>
    <style>
      .st0 {
        fill: #fff;
      }
    </style>
  </defs>
  <path class="st0" d="M16,6c-5.5,0-10,4.5-10,10v16c0,5.5,4.5,10,10,10h16c5.5,0,10-4.5,10-10v-16c0-5.5-4.5-10-10-10h-16ZM16,10h16c3.3,0,6,2.7,6,6v16c0,3.3-2.7,6-6,6h-16c-3.3,0-6-2.7-6-6v-16c0-3.3,2.7-6,6-6ZM34,12c-1.1,0-2,.9-2,2s.9,2,2,2,2-.9,2-2-.9-2-2-2ZM24,14c-5.5,0-10,4.5-10,10s4.5,10,10,10,10-4.5,10-10-4.5-10-10-10ZM24,18c3.3,0,6,2.7,6,6s-2.7,6-6,6-6-2.7-6-6,2.7-6,6-6Z"/>
</svg>