<?xml version="1.0" encoding="UTF-8"?>
<svg id="Layer_1" xmlns="http://www.w3.org/2000/svg" version="1.1" viewBox="0 0 48 48">
  <!-- Generator: Adobe Illustrator 29.0.1, SVG Export Plug-In . SVG Version: 2.1.0 Build 192)  -->
  <defs>
    <style>
      .st0 {
        fill: #fff;
      }
    </style>
  </defs>
  <path class="st0" d="M12,6c-3.3,0-6,2.7-6,6v24c0,3.3,2.7,6,6,6h24c3.3,0,6-2.7,6-6V12c0-3.3-2.7-6-6-6H12ZM12,10h24c1.1,0,2,.9,2,2v24c0,1.1-.9,2-2,2H12c-1.1,0-2-.9-2-2V12c0-1.1.9-2,2-2ZM13.4,14l7.9,11.3-7.5,8.7h2.7l6-7,4.9,7h7.7l-8.4-12,6.8-8h-2.6l-5.4,6.3-4.4-6.3h-7.7ZM17.1,16h3l11.3,16h-3l-11.2-16Z"/>
</svg>